<svg width="1435" height="470" viewBox="1 -70 1436 400" xmlns="http://www.w3.org/2000/svg">
  <title>header-wave-dark@1x</title>
  <g fill="none" fill-rule="evenodd">
    <path fill="#fffade" d="M0-70h1438v470H0z"/>
    <path d="M1438 269v200H0V269l.316-69c36.077 0 54.415 4.023 72.15 7.916 17.596 3.86 35.792 7.855 71.584 7.855 35.79 0 53.986-3.995 71.584-7.855 17.736-3.893 36.074-7.916 72.15-7.916 36.076 0 54.415 4.023 72.148 7.916 17.598 3.86 35.791 7.855 71.581 7.855 35.792 0 53.991-3.995 71.587-7.855 17.735-3.893 36.073-7.916 72.153-7.916 36.073 0 54.412 4.023 72.145 7.916 17.595 3.86 35.791 7.855 71.581 7.855 35.789 0 53.985-3.995 71.584-7.855 17.733-3.893 36.071-7.916 72.147-7.916 36.077 0 54.415 4.023 72.151 7.916 17.599 3.86 35.797 7.855 71.587 7.855 35.79 0 53.986-3.995 71.584-7.855 17.733-3.893 36.071-7.916 72.148-7.916 36.08 0 54.424 4.023 72.159 7.916 17.601 3.86 35.8 7.855 71.595 7.855 35.792 0 53.991-3.995 71.592-7.855 17.735-3.893 36.076-7.916 72.158-7.916l.311 69z" fill="#212121"/>
  </g>
</svg>
