<svg width="22" height="22" viewBox="0 0 22 22" fill="none" class="css-1bf9fvc-StyledSvg e5lvszr2"><path d="M11 2.12573C13.8904 2.12573 14.2327 2.13677 15.3742 2.18885C16.4296 2.23702 17.0028 2.41332 17.3842 2.56156C17.8544 2.73509 18.2797 3.01179 18.6289 3.37131C18.9884 3.72047 19.2651 4.14577 19.4386 4.61594C19.5869 4.99738 19.7632 5.57054 19.8113 6.62594C19.8634 7.7674 19.8744 8.10973 19.8744 11.0002C19.8744 13.8906 19.8634 14.2328 19.8113 15.3744C19.7632 16.4298 19.5868 17.0029 19.4386 17.3844C19.2585 17.8512 18.9827 18.2752 18.6289 18.629C18.2751 18.9828 17.8511 19.2587 17.3842 19.4387C17.0028 19.587 16.4296 19.7633 15.3742 19.8115C14.233 19.8635 13.8907 19.8746 11 19.8746C8.10939 19.8746 7.76718 19.8635 6.6258 19.8115C5.57041 19.7633 4.99729 19.5869 4.61581 19.4387C4.14564 19.2652 3.72034 18.9885 3.37118 18.629C3.01166 18.2798 2.73497 17.8545 2.56143 17.3844C2.41319 17.0029 2.23685 16.4298 2.18872 15.3744C2.13664 14.233 2.1256 13.8906 2.1256 11.0002C2.1256 8.10973 2.13664 7.76749 2.18872 6.62594C2.23689 5.57054 2.41319 4.99742 2.56143 4.61594C2.73498 4.14575 3.01171 3.72043 3.37127 3.37127C3.72043 3.01175 4.14573 2.73505 4.6159 2.56152C4.99733 2.41328 5.57049 2.23693 6.62589 2.18881C7.76736 2.13673 8.10969 2.12569 11.0001 2.12569L11 2.12573ZM11.0001 0.175293C8.06027 0.175293 7.69152 0.187754 6.53712 0.240434C5.38491 0.293027 4.59807 0.475988 3.90954 0.743598C3.18726 1.0154 2.53296 1.44149 1.99227 1.99214C1.44149 2.5328 1.01529 3.1871 0.743383 3.90941C0.475988 4.59798 0.293027 5.38483 0.240648 6.53703C0.187754 7.69143 0.175293 8.06019 0.175293 11C0.175293 13.9399 0.187754 14.3086 0.240648 15.463C0.293242 16.6152 0.476203 17.4021 0.743812 18.0906C1.01562 18.8129 1.4417 19.4672 1.99236 20.0079C2.53304 20.5585 3.18734 20.9846 3.90962 21.2564C4.5982 21.524 5.38504 21.707 6.5372 21.7596C7.69177 21.8123 8.0604 21.8247 11.0002 21.8247C13.94 21.8247 14.3088 21.8123 15.4632 21.7596C16.6154 21.707 17.4022 21.524 18.0908 21.2564C18.8098 20.9783 19.4629 20.553 20.008 20.0079C20.5532 19.4627 20.9785 18.8097 21.2566 18.0906C21.5242 17.402 21.7071 16.6152 21.7597 15.463C21.8124 14.3084 21.8249 13.9398 21.8249 11C21.8249 8.06023 21.8124 7.69143 21.7597 6.53703C21.7071 5.38483 21.5242 4.59798 21.2566 3.90945C20.9848 3.18717 20.5587 2.53287 20.008 1.99218C19.4673 1.44142 18.813 1.01525 18.0906 0.743383C17.4021 0.475988 16.6152 0.293027 15.463 0.240648C14.3086 0.187754 13.9399 0.175293 11 0.175293H11.0001Z"></path><path d="M11 5.44135C9.9006 5.44135 8.82589 5.76735 7.91178 6.37815C6.99766 6.98894 6.2852 7.85708 5.86448 8.87279C5.44375 9.8885 5.33367 11.0062 5.54816 12.0844C5.76264 13.1627 6.29205 14.1532 7.06944 14.9306C7.84683 15.7079 8.83729 16.2374 9.91556 16.4518C10.9938 16.6663 12.1115 16.5562 13.1272 16.1355C14.1429 15.7148 15.0111 15.0023 15.6219 14.0882C16.2326 13.1741 16.5587 12.0994 16.5587 11C16.5587 9.52575 15.973 8.11189 14.9306 7.06944C13.8881 6.02699 12.4742 5.44135 11 5.44135V5.44135ZM11 14.6082C10.2864 14.6082 9.58876 14.3966 8.9954 14.0001C8.40203 13.6036 7.93957 13.0401 7.66648 12.3808C7.39338 11.7215 7.32194 10.996 7.46116 10.296C7.60039 9.59612 7.94405 8.9532 8.44867 8.44859C8.95329 7.94397 9.59621 7.60033 10.2961 7.46111C10.9961 7.32189 11.7215 7.39335 12.3809 7.66645C13.0402 7.93954 13.6037 8.40202 14.0002 8.99538C14.3966 9.58875 14.6083 10.2864 14.6083 11C14.6082 11.957 14.2281 12.8747 13.5514 13.5514C12.8747 14.2281 11.957 14.6082 11 14.6082Z" fill="black"></path><path d="M16.7783 6.52068C17.4956 6.52068 18.0772 5.93912 18.0772 5.22174C18.0772 4.50435 17.4956 3.92279 16.7783 3.92279C16.0609 3.92279 15.4793 4.50435 15.4793 5.22174C15.4793 5.93912 16.0609 6.52068 16.7783 6.52068Z" fill="black"></path></svg>